<?xml version="1.0" encoding="UTF-8" standalone="no"?>
<!-- Created with Inkscape (http://www.inkscape.org/) -->

<svg
   width="1322.8346"
   height="1322.8346"
   viewBox="0 0 349.99998 349.99998"
   version="1.1"
   id="svg1"
   inkscape:version="1.3.2 (091e20e, 2023-11-25, custom)"
   sodipodi:docname="logo - Copie.svg"
   inkscape:export-filename="logo.png"
   inkscape:export-xdpi="96"
   inkscape:export-ydpi="96"
   xml:space="preserve"
   xmlns:inkscape="http://www.inkscape.org/namespaces/inkscape"
   xmlns:sodipodi="http://sodipodi.sourceforge.net/DTD/sodipodi-0.dtd"
   xmlns="http://www.w3.org/2000/svg"
   xmlns:svg="http://www.w3.org/2000/svg"><sodipodi:namedview
     id="namedview1"
     pagecolor="#ffffff"
     bordercolor="#000000"
     borderopacity="0.56470588"
     inkscape:showpageshadow="true"
     inkscape:pageopacity="0.0"
     inkscape:pagecheckerboard="false"
     inkscape:deskcolor="#d1d1d1"
     inkscape:document-units="mm"
     showgrid="true"
     inkscape:zoom="0.14660645"
     inkscape:cx="2230.4612"
     inkscape:cy="801.46542"
     inkscape:window-width="1920"
     inkscape:window-height="991"
     inkscape:window-x="-9"
     inkscape:window-y="-9"
     inkscape:window-maximized="1"
     inkscape:current-layer="layer1"><inkscape:grid
       id="grid1"
       units="mm"
       originx="2000"
       originy="725.21477"
       spacingx="0.99999998"
       spacingy="1"
       empcolor="#0099e5"
       empopacity="0.30196078"
       color="#0099e5"
       opacity="0.14901961"
       empspacing="5"
       enabled="true"
       visible="true" /></sodipodi:namedview><defs
     id="defs1"><clipPath
       clipPathUnits="userSpaceOnUse"
       id="clipPath46"><path
         id="path46"
         style="fill:none;fill-opacity:1;stroke:#a98467;stroke-width:15;stroke-linecap:round;stroke-linejoin:round;stroke-dasharray:none;stroke-opacity:1"
         d="m -719.954,-288.90084 c -49.97665,0 -99.95385,52.36263 -99.95385,104.72523 0,104.725132 149.93107,261.813152 199.90785,314.17561 49.97688,-52.362458 199.90763,-209.450478 199.90779,-314.17561 0,-52.3626 -49.97723,-104.72523 -99.95393,-104.72523 -49.97698,0 -99.95312,39.79447 -99.95312,92.15703 0,-52.36256 -49.97784,-92.15703 -99.95474,-92.15703 z"
         sodipodi:nodetypes="sscsscs" /></clipPath><clipPath
       clipPathUnits="userSpaceOnUse"
       id="clipPath47"><path
         id="path47"
         style="fill:none;fill-opacity:1;stroke:#a98467;stroke-width:15;stroke-linecap:round;stroke-linejoin:round;stroke-dasharray:none;stroke-opacity:1"
         d="m -719.954,-288.90084 c -49.97665,0 -99.95385,52.36263 -99.95385,104.72523 0,104.725132 149.93107,261.813152 199.90785,314.17561 49.97688,-52.362458 199.90763,-209.450478 199.90779,-314.17561 0,-52.3626 -49.97723,-104.72523 -99.95393,-104.72523 -49.97698,0 -99.95312,39.79447 -99.95312,92.15703 0,-52.36256 -49.97784,-92.15703 -99.95474,-92.15703 z"
         sodipodi:nodetypes="sscsscs" /></clipPath><clipPath
       clipPathUnits="userSpaceOnUse"
       id="clipPath48"><path
         id="path48"
         style="fill:none;fill-opacity:1;stroke:#a98467;stroke-width:15;stroke-linecap:round;stroke-linejoin:round;stroke-dasharray:none;stroke-opacity:1"
         d="m -719.954,-288.90084 c -49.97665,0 -99.95385,52.36263 -99.95385,104.72523 0,104.725132 149.93107,261.813152 199.90785,314.17561 49.97688,-52.362458 199.90763,-209.450478 199.90779,-314.17561 0,-52.3626 -49.97723,-104.72523 -99.95393,-104.72523 -49.97698,0 -99.95312,39.79447 -99.95312,92.15703 0,-52.36256 -49.97784,-92.15703 -99.95474,-92.15703 z"
         sodipodi:nodetypes="sscsscs" /></clipPath><clipPath
       clipPathUnits="userSpaceOnUse"
       id="clipPath49"><path
         id="path49"
         style="fill:none;fill-opacity:1;stroke:#a98467;stroke-width:15;stroke-linecap:round;stroke-linejoin:round;stroke-dasharray:none;stroke-opacity:1"
         d="m -719.954,-288.90084 c -49.97665,0 -99.95385,52.36263 -99.95385,104.72523 0,104.725132 149.93107,261.813152 199.90785,314.17561 49.97688,-52.362458 199.90763,-209.450478 199.90779,-314.17561 0,-52.3626 -49.97723,-104.72523 -99.95393,-104.72523 -49.97698,0 -99.95312,39.79447 -99.95312,92.15703 0,-52.36256 -49.97784,-92.15703 -99.95474,-92.15703 z"
         sodipodi:nodetypes="sscsscs" /></clipPath><clipPath
       clipPathUnits="userSpaceOnUse"
       id="clipPath50"><path
         id="path50"
         style="fill:none;fill-opacity:1;stroke:#a98467;stroke-width:15;stroke-linecap:round;stroke-linejoin:round;stroke-dasharray:none;stroke-opacity:1"
         d="m -719.954,-288.90084 c -49.97665,0 -99.95385,52.36263 -99.95385,104.72523 0,104.725132 149.93107,261.813152 199.90785,314.17561 49.97688,-52.362458 199.90763,-209.450478 199.90779,-314.17561 0,-52.3626 -49.97723,-104.72523 -99.95393,-104.72523 -49.97698,0 -99.95312,39.79447 -99.95312,92.15703 0,-52.36256 -49.97784,-92.15703 -99.95474,-92.15703 z"
         sodipodi:nodetypes="sscsscs" /></clipPath><clipPath
       clipPathUnits="userSpaceOnUse"
       id="clipPath51"><path
         id="path51"
         style="fill:none;fill-opacity:1;stroke:#a98467;stroke-width:15;stroke-linecap:round;stroke-linejoin:round;stroke-dasharray:none;stroke-opacity:1"
         d="m -719.954,-288.90084 c -49.97665,0 -99.95385,52.36263 -99.95385,104.72523 0,104.725132 149.93107,261.813152 199.90785,314.17561 49.97688,-52.362458 199.90763,-209.450478 199.90779,-314.17561 0,-52.3626 -49.97723,-104.72523 -99.95393,-104.72523 -49.97698,0 -99.95312,39.79447 -99.95312,92.15703 0,-52.36256 -49.97784,-92.15703 -99.95474,-92.15703 z"
         sodipodi:nodetypes="sscsscs" /></clipPath><clipPath
       clipPathUnits="userSpaceOnUse"
       id="clipPath52"><path
         id="path52"
         style="fill:none;fill-opacity:1;stroke:#a98467;stroke-width:15;stroke-linecap:round;stroke-linejoin:round;stroke-dasharray:none;stroke-opacity:1"
         d="m -719.954,-288.90084 c -49.97665,0 -99.95385,52.36263 -99.95385,104.72523 0,104.725132 149.93107,261.813152 199.90785,314.17561 49.97688,-52.362458 199.90763,-209.450478 199.90779,-314.17561 0,-52.3626 -49.97723,-104.72523 -99.95393,-104.72523 -49.97698,0 -99.95312,39.79447 -99.95312,92.15703 0,-52.36256 -49.97784,-92.15703 -99.95474,-92.15703 z"
         sodipodi:nodetypes="sscsscs" /></clipPath><clipPath
       clipPathUnits="userSpaceOnUse"
       id="clipPath53"><path
         id="path53"
         style="fill:none;fill-opacity:1;stroke:#a98467;stroke-width:15;stroke-linecap:round;stroke-linejoin:round;stroke-dasharray:none;stroke-opacity:1"
         d="m -719.954,-288.90084 c -49.97665,0 -99.95385,52.36263 -99.95385,104.72523 0,104.725132 149.93107,261.813152 199.90785,314.17561 49.97688,-52.362458 199.90763,-209.450478 199.90779,-314.17561 0,-52.3626 -49.97723,-104.72523 -99.95393,-104.72523 -49.97698,0 -99.95312,39.79447 -99.95312,92.15703 0,-52.36256 -49.97784,-92.15703 -99.95474,-92.15703 z"
         sodipodi:nodetypes="sscsscs" /></clipPath><clipPath
       clipPathUnits="userSpaceOnUse"
       id="clipPath60"><path
         style="fill:none;fill-opacity:1;stroke:#a98467;stroke-width:13.2416;stroke-linecap:round;stroke-linejoin:round;stroke-dasharray:none;stroke-opacity:1"
         d="m -1479.1159,181.92602 c 18.1368,-26.07128 220.6936,-35.31099 239.1731,0 l 0.059,158.77532 c -26.4739,65.83373 -76.8737,80.01143 -115.6434,119.29867 -41.601,-40.09372 -119.137,-68.81847 -123.5885,-120.66538 z"
         id="path61"
         sodipodi:nodetypes="cccccc" /></clipPath><clipPath
       clipPathUnits="userSpaceOnUse"
       id="clipPath61"><path
         style="fill:none;fill-opacity:1;stroke:#a98467;stroke-width:13.2416;stroke-linecap:round;stroke-linejoin:round;stroke-dasharray:none;stroke-opacity:1"
         d="m -1479.1159,181.92602 c 18.1368,-26.07128 220.6936,-35.31099 239.1731,0 l 0.059,158.77532 c -26.4739,65.83373 -76.8737,80.01143 -115.6434,119.29867 -41.601,-40.09372 -119.137,-68.81847 -123.5885,-120.66538 z"
         id="path62"
         sodipodi:nodetypes="cccccc" /></clipPath><clipPath
       clipPathUnits="userSpaceOnUse"
       id="clipPath62"><path
         style="fill:none;fill-opacity:1;stroke:#a98467;stroke-width:13.2416;stroke-linecap:round;stroke-linejoin:round;stroke-dasharray:none;stroke-opacity:1"
         d="m -1479.1159,181.92602 c 18.1368,-26.07128 220.6936,-35.31099 239.1731,0 l 0.059,158.77532 c -26.4739,65.83373 -76.8737,80.01143 -115.6434,119.29867 -41.601,-40.09372 -119.137,-68.81847 -123.5885,-120.66538 z"
         id="path63"
         sodipodi:nodetypes="cccccc" /></clipPath><clipPath
       clipPathUnits="userSpaceOnUse"
       id="clipPath63"><path
         style="fill:none;fill-opacity:1;stroke:#a98467;stroke-width:13.2416;stroke-linecap:round;stroke-linejoin:round;stroke-dasharray:none;stroke-opacity:1"
         d="m -1479.1159,181.92602 c 18.1368,-26.07128 220.6936,-35.31099 239.1731,0 l 0.059,158.77532 c -26.4739,65.83373 -76.8737,80.01143 -115.6434,119.29867 -41.601,-40.09372 -119.137,-68.81847 -123.5885,-120.66538 z"
         id="path64"
         sodipodi:nodetypes="cccccc" /></clipPath><clipPath
       clipPathUnits="userSpaceOnUse"
       id="clipPath64"><path
         style="fill:none;fill-opacity:1;stroke:#a98467;stroke-width:13.2416;stroke-linecap:round;stroke-linejoin:round;stroke-dasharray:none;stroke-opacity:1"
         d="m -1479.1159,181.92602 c 18.1368,-26.07128 220.6936,-35.31099 239.1731,0 l 0.059,158.77532 c -26.4739,65.83373 -76.8737,80.01143 -115.6434,119.29867 -41.601,-40.09372 -119.137,-68.81847 -123.5885,-120.66538 z"
         id="path65"
         sodipodi:nodetypes="cccccc" /></clipPath><clipPath
       clipPathUnits="userSpaceOnUse"
       id="clipPath65"><path
         style="fill:none;fill-opacity:1;stroke:#a98467;stroke-width:13.2416;stroke-linecap:round;stroke-linejoin:round;stroke-dasharray:none;stroke-opacity:1"
         d="m -1479.1159,181.92602 c 18.1368,-26.07128 220.6936,-35.31099 239.1731,0 l 0.059,158.77532 c -26.4739,65.83373 -76.8737,80.01143 -115.6434,119.29867 -41.601,-40.09372 -119.137,-68.81847 -123.5885,-120.66538 z"
         id="path66"
         sodipodi:nodetypes="cccccc" /></clipPath><clipPath
       clipPathUnits="userSpaceOnUse"
       id="clipPath66"><path
         style="fill:none;fill-opacity:1;stroke:#a98467;stroke-width:13.2416;stroke-linecap:round;stroke-linejoin:round;stroke-dasharray:none;stroke-opacity:1"
         d="m -1479.1159,181.92602 c 18.1368,-26.07128 220.6936,-35.31099 239.1731,0 l 0.059,158.77532 c -26.4739,65.83373 -76.8737,80.01143 -115.6434,119.29867 -41.601,-40.09372 -119.137,-68.81847 -123.5885,-120.66538 z"
         id="path67"
         sodipodi:nodetypes="cccccc" /></clipPath><clipPath
       clipPathUnits="userSpaceOnUse"
       id="clipPath67"><path
         style="fill:none;fill-opacity:1;stroke:#a98467;stroke-width:13.2416;stroke-linecap:round;stroke-linejoin:round;stroke-dasharray:none;stroke-opacity:1"
         d="m -1479.1159,181.92602 c 18.1368,-26.07128 220.6936,-35.31099 239.1731,0 l 0.059,158.77532 c -26.4739,65.83373 -76.8737,80.01143 -115.6434,119.29867 -41.601,-40.09372 -119.137,-68.81847 -123.5885,-120.66538 z"
         id="path68"
         sodipodi:nodetypes="cccccc" /></clipPath><clipPath
       clipPathUnits="userSpaceOnUse"
       id="clipPath93"><path
         style="fill:none;fill-opacity:1;stroke:#a98467;stroke-width:13.2416;stroke-linecap:round;stroke-linejoin:round;stroke-dasharray:none;stroke-opacity:1"
         d="m -1947.3142,-667.6834 c 18.1368,-26.07127 220.6936,-35.311 239.1731,0 l 0.059,158.7753 c -26.4739,65.83373 -76.8737,80.01145 -115.6434,119.29869 -41.601,-40.09371 -119.137,-68.81847 -123.5885,-120.66537 z"
         id="path94"
         sodipodi:nodetypes="cccccc" /></clipPath><clipPath
       clipPathUnits="userSpaceOnUse"
       id="clipPath94"><path
         style="fill:none;fill-opacity:1;stroke:#a98467;stroke-width:13.2416;stroke-linecap:round;stroke-linejoin:round;stroke-dasharray:none;stroke-opacity:1"
         d="m -1947.3142,-667.6834 c 18.1368,-26.07127 220.6936,-35.311 239.1731,0 l 0.059,158.7753 c -26.4739,65.83373 -76.8737,80.01145 -115.6434,119.29869 -41.601,-40.09371 -119.137,-68.81847 -123.5885,-120.66537 z"
         id="path95"
         sodipodi:nodetypes="cccccc" /></clipPath><clipPath
       clipPathUnits="userSpaceOnUse"
       id="clipPath95"><path
         style="fill:none;fill-opacity:1;stroke:#a98467;stroke-width:13.2416;stroke-linecap:round;stroke-linejoin:round;stroke-dasharray:none;stroke-opacity:1"
         d="m -1947.3142,-667.6834 c 18.1368,-26.07127 220.6936,-35.311 239.1731,0 l 0.059,158.7753 c -26.4739,65.83373 -76.8737,80.01145 -115.6434,119.29869 -41.601,-40.09371 -119.137,-68.81847 -123.5885,-120.66537 z"
         id="path96"
         sodipodi:nodetypes="cccccc" /></clipPath><clipPath
       clipPathUnits="userSpaceOnUse"
       id="clipPath96"><path
         style="fill:none;fill-opacity:1;stroke:#a98467;stroke-width:13.2416;stroke-linecap:round;stroke-linejoin:round;stroke-dasharray:none;stroke-opacity:1"
         d="m -1947.3142,-667.6834 c 18.1368,-26.07127 220.6936,-35.311 239.1731,0 l 0.059,158.7753 c -26.4739,65.83373 -76.8737,80.01145 -115.6434,119.29869 -41.601,-40.09371 -119.137,-68.81847 -123.5885,-120.66537 z"
         id="path97"
         sodipodi:nodetypes="cccccc" /></clipPath><clipPath
       clipPathUnits="userSpaceOnUse"
       id="clipPath97"><path
         style="fill:none;fill-opacity:1;stroke:#a98467;stroke-width:13.2416;stroke-linecap:round;stroke-linejoin:round;stroke-dasharray:none;stroke-opacity:1"
         d="m -1947.3142,-667.6834 c 18.1368,-26.07127 220.6936,-35.311 239.1731,0 l 0.059,158.7753 c -26.4739,65.83373 -76.8737,80.01145 -115.6434,119.29869 -41.601,-40.09371 -119.137,-68.81847 -123.5885,-120.66537 z"
         id="path98"
         sodipodi:nodetypes="cccccc" /></clipPath><clipPath
       clipPathUnits="userSpaceOnUse"
       id="clipPath98"><path
         style="fill:none;fill-opacity:1;stroke:#a98467;stroke-width:13.2416;stroke-linecap:round;stroke-linejoin:round;stroke-dasharray:none;stroke-opacity:1"
         d="m -1947.3142,-667.6834 c 18.1368,-26.07127 220.6936,-35.311 239.1731,0 l 0.059,158.7753 c -26.4739,65.83373 -76.8737,80.01145 -115.6434,119.29869 -41.601,-40.09371 -119.137,-68.81847 -123.5885,-120.66537 z"
         id="path99"
         sodipodi:nodetypes="cccccc" /></clipPath><clipPath
       clipPathUnits="userSpaceOnUse"
       id="clipPath99"><path
         style="fill:none;fill-opacity:1;stroke:#a98467;stroke-width:13.2416;stroke-linecap:round;stroke-linejoin:round;stroke-dasharray:none;stroke-opacity:1"
         d="m -1947.3142,-667.6834 c 18.1368,-26.07127 220.6936,-35.311 239.1731,0 l 0.059,158.7753 c -26.4739,65.83373 -76.8737,80.01145 -115.6434,119.29869 -41.601,-40.09371 -119.137,-68.81847 -123.5885,-120.66537 z"
         id="path100"
         sodipodi:nodetypes="cccccc" /></clipPath><clipPath
       clipPathUnits="userSpaceOnUse"
       id="clipPath100"><path
         style="fill:none;fill-opacity:1;stroke:#a98467;stroke-width:13.2416;stroke-linecap:round;stroke-linejoin:round;stroke-dasharray:none;stroke-opacity:1"
         d="m -1947.3142,-667.6834 c 18.1368,-26.07127 220.6936,-35.311 239.1731,0 l 0.059,158.7753 c -26.4739,65.83373 -76.8737,80.01145 -115.6434,119.29869 -41.601,-40.09371 -119.137,-68.81847 -123.5885,-120.66537 z"
         id="path101"
         sodipodi:nodetypes="cccccc" /></clipPath><clipPath
       clipPathUnits="userSpaceOnUse"
       id="clipPath101"><path
         style="fill:none;fill-opacity:1;stroke:#a98467;stroke-width:13.2416;stroke-linecap:round;stroke-linejoin:round;stroke-dasharray:none;stroke-opacity:1"
         d="m -1947.3142,-667.6834 c 18.1368,-26.07127 220.6936,-35.311 239.1731,0 l 0.059,158.7753 c -26.4739,65.83373 -76.8737,80.01145 -115.6434,119.29869 -41.601,-40.09371 -119.137,-68.81847 -123.5885,-120.66537 z"
         id="path102"
         sodipodi:nodetypes="cccccc" /></clipPath><clipPath
       clipPathUnits="userSpaceOnUse"
       id="clipPath102"><path
         style="fill:none;fill-opacity:1;stroke:#a98467;stroke-width:13.2416;stroke-linecap:round;stroke-linejoin:round;stroke-dasharray:none;stroke-opacity:1"
         d="m -1947.3142,-667.6834 c 18.1368,-26.07127 220.6936,-35.311 239.1731,0 l 0.059,158.7753 c -26.4739,65.83373 -76.8737,80.01145 -115.6434,119.29869 -41.601,-40.09371 -119.137,-68.81847 -123.5885,-120.66537 z"
         id="path103"
         sodipodi:nodetypes="cccccc" /></clipPath><clipPath
       clipPathUnits="userSpaceOnUse"
       id="clipPath106"><path
         style="fill:none;fill-opacity:1;stroke:#a98467;stroke-width:13.2416;stroke-linecap:round;stroke-linejoin:round;stroke-dasharray:none;stroke-opacity:1"
         d="m -1940.6934,-668.40875 c 18.1368,-26.0713 220.6936,-35.311 239.1731,0 l 0.059,158.77529 c -26.4739,65.83373 -76.8737,80.01143 -115.6434,119.2987 -41.601,-40.09372 -119.137,-68.81847 -123.5885,-120.66538 z"
         id="path107"
         sodipodi:nodetypes="cccccc" /></clipPath><clipPath
       clipPathUnits="userSpaceOnUse"
       id="clipPath107"><path
         style="fill:none;fill-opacity:1;stroke:#a98467;stroke-width:13.2416;stroke-linecap:round;stroke-linejoin:round;stroke-dasharray:none;stroke-opacity:1"
         d="m -1940.6934,-668.40875 c 18.1368,-26.0713 220.6936,-35.311 239.1731,0 l 0.059,158.77529 c -26.4739,65.83373 -76.8737,80.01143 -115.6434,119.2987 -41.601,-40.09372 -119.137,-68.81847 -123.5885,-120.66538 z"
         id="path108"
         sodipodi:nodetypes="cccccc" /></clipPath><clipPath
       clipPathUnits="userSpaceOnUse"
       id="clipPath109"><path
         style="fill:none;fill-opacity:1;stroke:#a98467;stroke-width:13.2416;stroke-linecap:round;stroke-linejoin:round;stroke-dasharray:none;stroke-opacity:1"
         d="m -1938.4606,-661.9556 c 15,-30.00002 180,-45.00001 230,0 v 149.99999 c -26.4739,65.83373 -95,105.00001 -110,120.00003 -15,-15.00002 -115.5485,-68.15312 -120,-120.00003 z"
         id="path110"
         sodipodi:nodetypes="cccccc" /></clipPath><clipPath
       clipPathUnits="userSpaceOnUse"
       id="clipPath110"><path
         style="fill:none;fill-opacity:1;stroke:#a98467;stroke-width:13.2416;stroke-linecap:round;stroke-linejoin:round;stroke-dasharray:none;stroke-opacity:1"
         d="m -1938.4606,-661.9556 c 15,-30.00002 180,-45.00001 230,0 v 149.99999 c -26.4739,65.83373 -95,105.00001 -110,120.00003 -15,-15.00002 -115.5485,-68.15312 -120,-120.00003 z"
         id="path111"
         sodipodi:nodetypes="cccccc" /></clipPath><clipPath
       clipPathUnits="userSpaceOnUse"
       id="clipPath111"><path
         style="fill:none;fill-opacity:1;stroke:#a98467;stroke-width:12.3999;stroke-linecap:round;stroke-linejoin:round;stroke-dasharray:none;stroke-opacity:1"
         d="m -1938.4606,-663.67356 c 15,-26.30726 180,-39.46089 230,0 v 131.53625 c -26.4739,57.73015 -95,92.07538 -110,105.22903 -15,-13.15365 -115.5485,-59.76405 -120,-105.22903 z"
         id="path112"
         sodipodi:nodetypes="cccccc" /></clipPath><clipPath
       clipPathUnits="userSpaceOnUse"
       id="clipPath112"><path
         style="fill:none;fill-opacity:1;stroke:#a98467;stroke-width:12.3999;stroke-linecap:round;stroke-linejoin:round;stroke-dasharray:none;stroke-opacity:1"
         d="m -1938.4606,-663.67356 c 15,-26.30726 180,-39.46089 230,0 v 131.53625 c -26.4739,57.73015 -95,92.07538 -110,105.22903 -15,-13.15365 -115.5485,-59.76405 -120,-105.22903 z"
         id="path113"
         sodipodi:nodetypes="cccccc" /></clipPath><clipPath
       clipPathUnits="userSpaceOnUse"
       id="clipPath113"><path
         style="fill:none;fill-opacity:1;stroke:#a98467;stroke-width:12.3999;stroke-linecap:round;stroke-linejoin:round;stroke-dasharray:none;stroke-opacity:1"
         d="m -1938.4606,-663.67356 c 15,-26.30726 180,-39.46089 230,0 v 131.53625 c -26.4739,57.73015 -95,92.07538 -110,105.22903 -15,-13.15365 -115.5485,-59.76405 -120,-105.22903 z"
         id="path114"
         sodipodi:nodetypes="cccccc" /></clipPath><clipPath
       clipPathUnits="userSpaceOnUse"
       id="clipPath114"><path
         style="fill:none;fill-opacity:1;stroke:#a98467;stroke-width:13.2416;stroke-linecap:round;stroke-linejoin:round;stroke-dasharray:none;stroke-opacity:1"
         d="m -1938.4606,-661.9556 c 15,-30.00002 180,-45.00001 230,0 v 149.99999 c -26.4739,65.83373 -95,105.00001 -110,120.00003 -15,-15.00002 -115.5485,-68.15312 -120,-120.00003 z"
         id="path115"
         sodipodi:nodetypes="cccccc" /></clipPath><clipPath
       clipPathUnits="userSpaceOnUse"
       id="clipPath115"><path
         style="fill:none;fill-opacity:1;stroke:#a98467;stroke-width:12.3999;stroke-linecap:round;stroke-linejoin:round;stroke-dasharray:none;stroke-opacity:1"
         d="m -1938.4606,-663.67356 c 15,-26.30726 180,-39.46089 230,0 v 131.53625 c -26.4739,57.73015 -95,92.07538 -110,105.22903 -15,-13.15365 -115.5485,-59.76405 -120,-105.22903 z"
         id="path116"
         sodipodi:nodetypes="cccccc" /></clipPath><clipPath
       clipPathUnits="userSpaceOnUse"
       id="clipPath116"><path
         style="fill:none;fill-opacity:1;stroke:#a98467;stroke-width:13.2416;stroke-linecap:round;stroke-linejoin:round;stroke-dasharray:none;stroke-opacity:1"
         d="m -1927.8773,-661.9556 c 15,-30.00002 180.0001,-45.00001 230.0001,0 v 149.99999 c -26.474,65.83373 -95,105.00001 -110.0001,120.00003 -14.9999,-15.00002 -115.5484,-68.15312 -120,-120.00003 z"
         id="path117"
         sodipodi:nodetypes="cccccc" /></clipPath><clipPath
       clipPathUnits="userSpaceOnUse"
       id="clipPath117"><path
         style="fill:none;fill-opacity:1;stroke:#a98467;stroke-width:13.2416;stroke-linecap:round;stroke-linejoin:round;stroke-dasharray:none;stroke-opacity:1"
         d="m -1938.4606,-661.9556 c 15,-30.00002 180,-45.00001 230,0 v 149.99999 c -26.4739,65.83373 -95,105.00001 -110,120.00003 -15,-15.00002 -115.5485,-68.15312 -120,-120.00003 z"
         id="path118"
         sodipodi:nodetypes="cccccc" /></clipPath></defs><g
     inkscape:label="Calque 1"
     inkscape:groupmode="layer"
     id="layer1"
     transform="translate(2000,725.21478)"><rect
       style="fill:#ffffff;fill-opacity:1;stroke-width:0.25;stroke-linecap:round;stroke-linejoin:round;paint-order:stroke markers fill"
       id="rect1"
       width="349.99997"
       height="349.99997"
       x="-2000"
       y="-725.21478"
       ry="55.214787"
       rx="55.32127" /><rect
       style="fill:#f3e0a5;fill-opacity:1;stroke-width:2.20292"
       id="rect83"
       width="270.93335"
       height="187.81937"
       x="-1972.3947"
       y="-697.45282"
       ry="0"
       clip-path="url(#clipPath117)"
       transform="translate(-1.5394238,-8.8296393)" /><path
       style="fill:#c4cb77;fill-opacity:1;stroke:none;stroke-width:15.8296;stroke-linecap:round;stroke-linejoin:round;stroke-dasharray:none;stroke-opacity:1"
       d="m -1836.7751,-408.16035 103.8978,-198.01002 c 3,-6 10,-6 13,0 l 126.212,200.3323 z"
       id="path105"
       sodipodi:nodetypes="ccccc"
       clip-path="url(#clipPath116)"
       transform="translate(-12.122759,-8.8296393)" /><path
       style="fill:#d0d587;fill-opacity:1;stroke:none;stroke-width:2.55912;stroke-dasharray:none;stroke-opacity:1"
       d="m -1713.4606,-510.40293 -101,-152.58205 h -13 l -109,153.64225 c 5.4187,15.95205 58.8926,51.56188 119.6591,91.61171 50.3162,-31.5647 103.3409,-92.67191 103.3409,-92.67191 z"
       id="path85"
       sodipodi:nodetypes="cccccc"
       clip-path="url(#clipPath115)"
       transform="matrix(1,0,0,1.14037,-1.5394238,86.048177)" /><path
       style="fill:#aab95f;fill-opacity:1;stroke:none;stroke-width:16.3966;stroke-linecap:round;stroke-linejoin:round;stroke-dasharray:none;stroke-opacity:1"
       d="m -2033.4738,-410.02312 110.0132,-133.14725 c 5,-6 10,-6 15,0 l 118.7855,135.63178 z"
       id="path104"
       sodipodi:nodetypes="ccccc"
       clip-path="url(#clipPath114)"
       transform="translate(-1.5394238,-8.8296393)" /><path
       style="fill:none;fill-opacity:1;stroke:#fdfefc;stroke-width:16.6521;stroke-linecap:round;stroke-linejoin:round;stroke-dasharray:none;stroke-opacity:1"
       d="m -1969.4745,-586.52726 h 98.3982 l 16.8528,-23.51139 16.5157,47.02278 16.7312,-82.43095 17.3114,70.67526 16.8527,-23.51139 16.8528,11.75569 h 101.5648"
       id="path86"
       sodipodi:nodetypes="ccccccccc"
       clip-path="url(#clipPath113)"
       transform="matrix(1,0,0,1.14037,-1.5394238,86.048177)" /><path
       style="fill:#ffffff;fill-opacity:1;stroke:none;stroke-width:0.517296;stroke-dasharray:none;stroke-opacity:1"
       d="m -1854.2235,-610.03865 -16.8528,23.51139 -10.5632,-0.50561 54.1789,-75.95211 c 4,-6.11984 9,-6.13836 13,0 l 52.4511,76.45332 -7.9502,0.004 -16.8528,-11.75569 -16.8527,23.51139 -17.3114,-70.67486 -16.7312,82.43055 z"
       id="path87"
       sodipodi:nodetypes="cccccccccccc"
       clip-path="url(#clipPath112)"
       transform="matrix(1,0,0,1.14037,-1.5394238,86.048177)" /><path
       style="fill:none;fill-opacity:1;stroke:#59652d;stroke-width:5.82823;stroke-linecap:round;stroke-linejoin:round;stroke-dasharray:none;stroke-opacity:1"
       d="m -1969.4745,-586.52726 h 98.3982 l 16.8528,-23.51139 16.5157,47.02278 16.7312,-82.43095 17.3114,70.67526 16.8527,-23.51139 16.8528,11.75569 h 101.5648"
       id="path88"
       sodipodi:nodetypes="ccccccccc"
       clip-path="url(#clipPath111)"
       transform="matrix(1,0,0,1.14037,-1.5394238,86.048177)" /><path
       style="fill:#59652d;fill-opacity:1;stroke:none;stroke-width:15;stroke-linecap:round;stroke-linejoin:round;stroke-dasharray:none;stroke-opacity:1"
       d="m -1752.2336,-439.0434 c -22.8262,-17.51398 -98.7975,-8.41157 -128.199,12.75239 l 61.972,40.12064 c 0,0 66.5137,-53.184 66.227,-52.87303 z"
       id="path90"
       sodipodi:nodetypes="cccc"
       clip-path="url(#clipPath110)"
       transform="translate(-1.5394238,-8.8296393)" /><path
       id="path91"
       style="fill:#59652d;fill-opacity:1;stroke:none;stroke-width:15;stroke-linecap:round;stroke-linejoin:round;stroke-dasharray:none;stroke-opacity:1"
       d="m -1817.6164,-544.4092 c -5.3282,-8e-5 -9.6476,4.31928 -9.6475,9.64747 -10e-5,5.32819 4.3193,9.64755 9.6475,9.64747 5.3282,8e-5 9.6476,-4.31928 9.6475,-9.64747 10e-5,-5.32819 -4.3193,-9.64755 -9.6475,-9.64747 z m -21.8443,17.23883 c -2.8039,0.004 -5.5475,1.06628 -7.2004,4.17691 -2.2579,4.37894 -3.7995,19.82309 -3.6872,21.98981 -0.1123,7.83328 11.8877,6.83328 12.8877,5.83328 0.1074,-2.99808 2,-12 5,-26 0.2538,-1.53578 0,-4 -2,-5 -1.6302,-0.81512 -2.196,-1.00446 -5,-1 z m 9.0001,7 c -3,14 -7,30 -4,34 l -4.7839,19.47283 c 0,0 -6.0514,12.09261 -10.4748,20.44048 -2.7413,6.08669 7.1388,7.0436 10.6982,7.51169 5.2179,0.44405 7.2021,-6.63203 0.5605,-7.425 0,0 9,-14 10,-16 1,-2 4,-14 4,-14 l 7.5749,9.1337 -0.5749,18.74559 c -1,8.12071 8.9416,6.9991 8.9416,6.9991 5.0584,0.12161 5.2715,-6.961 0.058,-7.87839 0,0 3.0004,-19 2,-21 -1.2443,-5.28947 -12,-17 -12,-18 0,-4 2,-13 2,-13 1.292,2.35728 4,7 6,7 1,0 16.0004,-1 16.0004,-1 l -7,49 h 5 l 7,-49 c 6,0 5.9996,-8 0.9996,-8 0,0 1.0004,-6 1.0004,-7 -0.4512,-3 -4.4489,-3 -5,0 l -1.0004,7 c -5.0256,0.0498 -13,0 -13,0 4e-4,-1 -4.1635,-11.09776 -8.6145,-17.04861 -1.731,-2.77283 -4.3855,-3.95139 -7.3855,-3.95139 -3,0 -7,1 -8,4 z"
       clip-path="url(#clipPath109)"
       sodipodi:nodetypes="sssssccccccccccccccccccccccccccccccccccccc"
       transform="translate(-1.5394238,-8.8296393)" /><path
       style="fill:none;fill-opacity:1;stroke:#59652d;stroke-width:13.2416;stroke-linecap:round;stroke-linejoin:round;stroke-dasharray:none;stroke-opacity:1"
       d="m -1940,-664.00001 c 50,-45 180,-45 230,0 v 145 c 0,50.9571 -95,105.00001 -110,120.00001 -15,-15 -120,-70.00001 -120,-120.00001 z"
       id="path109"
       sodipodi:nodetypes="cccccc" /></g></svg>
